<?xml version="1.0" encoding="UTF-8"?>
<svg id="Layer_1" data-name="Layer 1" xmlns="http://www.w3.org/2000/svg" viewBox="0 0 338.48 81">
  <defs>
    <style>
      .cls-1 {
        fill: #f48035;
      }

      .cls-2 {
        fill: #118644;
      }

      .cls-3 {
        fill: #f6b41c;
      }

      .cls-4 {
        fill: #f0e6cc;
      }

      .cls-5 {
        fill: #f07b96;
      }

      .cls-6 {
        fill: #19171a;
      }

      .cls-7 {
        fill: #f6b31b;
      }

      .cls-8 {
        fill: #006838;
      }
    </style>
  </defs>
  <g>
    <path class="cls-3" d="M8.9,66.26c-2.02-.69-5.19-.5-6.35,1.59-2.26,4.07,2.9,9.41,6.25,11.18,1.22.64,2.45,1.02,3.88,1.31,7.75,1.56,19.31.26,26.66-2.7.38-.15,1.62-.89,1.82-.89.17,0,.74.42,1.06.52,3.77,1.22,7.6.65,11.27-.55.37-.12.96-.5,1.23-.54.71-.11,1.65.65,2.33.78,1.67.32,3.77-.38,4.35-2.1,1.03-3.05-1.87-7.34-4.04-9.34-.25-.23-1.09-.67-1.09-.94,1.71-2.54,3.13-5.27,4.37-8.06.19-.11,2.52.51,2.82.73.43.32.63,1.28.93,1.79,2.65,4.53,9.07,3.14,11.23-1.17,3.46-6.91-4.86-14.2-11.2-15.07.41-3.61.37-7.25-.13-10.85,4.17-.59,8.46-3.54,10.1-7.47.17-.41.43-1.62.6-1.84s1.64-.73,2.03-.95c2.01-1.15,4.62-3.52,6.04-5.36.65-.84,2.03-2.62,1.36-3.65-.47-.72-4.02-.91-4.98-1.26-5.17-2.14-9.02-6.24-14.39-8.01-6.23-2.05-14.26-1.56-19.18,3.15-.42.4-.91.8-1.08,1.36-.37-.71-.57-1.45-.96-2.16-.94-1.69-3.98-5.48-5.96-5.71-2.49-.29-5.33,1.23-5.37,4-.03,1.83,1.82,2.47,3,3.53.3.27,2.26,2.16,1.9,2.51-1.44,0-2.86.42-4.21.89-2.18-3.74-6-6.1-10.37-6.19-2.03-.04-3.53.37-5.37,1.16-4.23,1.83-7,7.13-6.79,11.68.19,4.28,2.8,8.25,6.52,10.24-.99,2.78-1.11,5.75-1.09,8.68l-1.05-2.14c-.23-12.47-17.42-10.96-14.77,1.47.75,3.52,3.35,8.78,5.77,11.46.46.51.65.31.67.35.06.09-.02.35.2.68.39.58,2.17,2.21,2.79,2.77,1.36,1.23,2.85,2.33,4.33,3.41.08.32-1.47,2.79-1.78,3.22-1.36,1.92-4.54,4.56-4.7,6.85-.07.95.54,1.09,1.33,1.38v.27ZM79.65,35.14c-.24-.21-.66-.86-.79-1.18-.32-.81-.37-4.28-1.85-3.06-.81.66-.1,3.34-2.04,4.34-.92.48-3.37.28-3.72,1.03-.7,1.53,1.85,1.38,2.65,1.55,1.04.22,1.72.52,2.09,1.57.32.88.19,3.3,1.49,3.12.75-.1.89-2.27,1.24-2.98.09-.19.78-1.09.91-1.2.89-.71,3.29-.34,3.77-.92.44-.54.29-1.03-.31-1.32-1.02-.5-2.38-.03-3.44-.97Z"/>
    <path class="cls-1" d="M45.13,13.06c1.77,3.99,5.98,8.27,9.94,10.08,1.22.56,3.18.77,4.34,1.36.59.3,1.41,2.26,1.66,2.95,1.67,4.65,2.06,10.18,1.42,15.05-2.15-.01-4.32.22-6.29,1.11-1.85.84-5.95,3.73-5.66,6.03.11.84,1.14.56,1.64.2.32-.24.49-.75.83-1.01,4.93-3.81,12.06-3.9,17.08-.27,1.23.89,2.06,2.2,3.4,2.91.76,1.72,1.21,2.9.61,4.88-.89,2.91-5.06,4.98-7.33,2.45-1.03-1.15-.05-1.96-1.46-2.88-1.94-1.27-4.69-1.37-6.95-1.19-.72.06-4.3.84-4.72,1.21-.32.29-.19,1.01.02,1.28.11.14.35.05.52.12.04.02.04.21.13.23s1.52-.12,1.73-.15c.7-.1,1.52-.44,2.19-.52.22-.03.22-.02.2.2-3.78,7.38-9.13,13.74-16.74,17.32-7.88,3.71-20.8,5.86-29.27,3.71-3.89-.99-8.99-4.28-8.41-8.89,1.88-1.63,3.9.3,5.78.53,2.2.28,5.35-.6,7.55-1.11,3.71-.86,7.34-2.04,11.17-2.4,1.62-.15,2.49.23,4-.54.46-.23,1.32-.08,1.7-.68.19-.3-.01-.58-.21-.81,3-3.95,7.25-11.09,1.75-14.85-2.07-1.42-4.27-1.54-6.64-.83-6.21,1.87-7.55,9.16-10.71,13.99-.26.75-.45,1.56-.42,2.36-2.31.59-4.65,1.17-6.96,1.77-.12.03-.1.25-.16.25-.77-.02-1.34-.44-1.98-.66v-.27c.27.1,1.81.49,1.9.41.4-.41-1.1-.73-1.27-1.12-.26-.62.02-.67.18-1.05.42.76,1.83-.72,2.23-1.1,4.98-4.78,7.62-10.76,7.95-17.7.26-5.52-.89-11.1.58-16.52,1.09-3.98,3.62-7.62,6.85-10.15.51-.39,3.56-2.58,3.93-2.69.11-.03.2-.04.31-.03-.35,2.55,3.41,2.22,3.27-.08-.02-.39-.69-.87-.96-1.21.31-.38.85-.25,1.24-.38,1.61-.51,3.39-1.14,5.07-1.3,1.58-.15,3.34.09,4.94-.01ZM36.53,14.63c-.51.44-.63,1.33.12,1.43s1.07-.05,1.24-.82c.19-.86-.7-.58-1.24-.79-.07,0-.05.13-.12.19ZM24.01,24.69c.76.77,2.06-.3,2.91-.61,1.03-.37,3.48-.45,2.68-2.34-.54-1.28-2.67-.68-3.6-.21-.98.5-3.12,2-1.99,3.15ZM46.59,21.1c-.85.17-1.4,1.05-.97,1.86s1.6.76,2.36,1.03c.97.35,2.62,1.83,3.38.38s-2.01-3.09-3.2-3.27c-.42-.07-1.15-.09-1.56,0ZM31.02,31.38c.01-3.25-3.28-5.54-6.34-4.37-3.29,1.25-4.13,5.62-1.93,8.24,1.48,1.77,3.53,1.8,5.56,1.02-.17,5.45,3.93,9.56,9.5,8.21,5.25-1.28,7.83-7.63,4.34-11.94-2.12-2.62-5.57-3.68-8.75-2.38-.86.35-1.5,1.06-2.37,1.22ZM47.41,26.81c-4.34.37-5.63,5.02-3.42,8.36.06.09.59.49.75.61,3.79,2.96,8.85-.02,8.26-4.73-.32-2.56-3.11-4.45-5.58-4.25Z"/>
    <path class="cls-6" d="M8.9,65.99c-.78-.29-1.39-.44-1.33-1.38.16-2.29,3.34-4.93,4.7-6.85.3-.43,1.85-2.9,1.78-3.22-1.49-1.08-2.97-2.17-4.33-3.41-.62-.56-2.4-2.19-2.79-2.77-.22-.33-.15-.59-.2-.68-.02-.04-.21.16-.67-.35-2.42-2.68-5.02-7.94-5.77-11.46-2.65-12.42,14.53-13.94,14.77-1.47l1.05,2.14c-.02-2.94.1-5.9,1.09-8.68-3.73-1.99-6.33-5.96-6.52-10.24-.2-4.55,2.56-9.84,6.79-11.68,1.83-.79,3.34-1.21,5.37-1.16,4.38.09,8.19,2.45,10.37,6.19,1.35-.47,2.77-.9,4.21-.89.37-.35-1.6-2.24-1.9-2.51-1.18-1.05-3.02-1.69-3-3.53.04-2.77,2.88-4.29,5.37-4,1.98.23,5.02,4.02,5.96,5.71.39.71.59,1.45.96,2.16.17-.56.66-.96,1.08-1.36,4.92-4.71,12.95-5.21,19.18-3.15,5.37,1.77,9.22,5.87,14.39,8.01.96.36,4.51.55,4.98,1.26.67,1.03-.71,2.8-1.36,3.65-1.42,1.84-4.03,4.21-6.04,5.36-.39.22-1.85.73-2.03.95s-.43,1.43-.6,1.84c-1.64,3.94-5.93,6.88-10.1,7.47.51,3.6.54,7.24.13,10.85,6.34.87,14.66,8.16,11.2,15.07-2.16,4.31-8.58,5.7-11.23,1.17-.3-.51-.5-1.47-.93-1.79-.3-.23-2.64-.84-2.82-.73-1.24,2.8-2.67,5.52-4.37,8.06,0,.27.84.71,1.09.94,2.17,2,5.07,6.29,4.04,9.34-.58,1.73-2.68,2.42-4.35,2.1-.68-.13-1.61-.89-2.33-.78-.28.04-.86.42-1.23.54-3.67,1.19-7.5,1.77-11.27.55-.32-.1-.89-.52-1.06-.52-.2,0-1.44.73-1.82.89-7.35,2.96-18.91,4.26-26.66,2.7-1.42-.29-2.65-.67-3.88-1.31-3.35-1.76-8.51-7.1-6.25-11.18,1.16-2.09,4.33-2.28,6.35-1.59.64.22,1.21.64,1.98.66.06,0,.04-.22.16-.25,2.31-.6,4.65-1.19,6.96-1.77,3.23-.82,6.04-1.63,9.43-1.77,1.45-.06,5.63-.07,6.59,1.09.19.23.4.51.21.81-.38.6-1.24.44-1.7.68-.46-.46-1.6-.62-2.24-.68-7.17-.58-13.74,2.49-20.6,3.63-1.48-.86-5.33-2.05-5.66.58-.58,4.61,4.52,7.9,8.41,8.89,8.47,2.15,21.39,0,29.27-3.71,7.61-3.59,12.96-9.94,16.74-17.32.02-.22.02-.23-.2-.2-.67.08-1.5.43-2.19.52-.21.03-1.64.17-1.73.15-.09-.02-.09-.21-.13-.23-.17-.07-.41.02-.52-.12-.21-.28-.34-1-.02-1.28.42-.38,4-1.16,4.72-1.21,2.26-.17,5-.07,6.95,1.19,1.41.92.44,1.73,1.46,2.88,2.27,2.53,6.44.46,7.33-2.45.6-1.98.15-3.16-.61-4.88-2.34-5.34-9.12-8.11-14.72-6.78-2.87.68-5.54,2.26-6.59,5.15-.49.37-1.53.64-1.64-.2-.29-2.3,3.8-5.19,5.66-6.03,1.96-.89,4.14-1.12,6.29-1.11.64-4.87.25-10.4-1.42-15.05-.25-.69-1.07-2.65-1.66-2.95-1.16-.59-3.11-.79-4.34-1.36-3.96-1.82-8.17-6.09-9.94-10.08-.18-.4-.31-.78-.44-1.19-9.9-1.65-19.28,2.9-24.02,11.69-3.36,6.24-2.61,12.11-2.55,18.88.05,5.96-.78,10.64-3.97,15.72-1.25,1.99-3.59,4.01-4.45,6.07-.16.38-.45.43-.18,1.05.16.38,1.67.71,1.27,1.12-.09.09-1.63-.31-1.9-.41ZM38.35,2.48c-.06-.04-.15-.27-.36-.39-1.65-.89-4.37,1.07-3.38,2.43.15.21.66.58.88.39.02-.02.04-.27.28-.53,1.13.47,1.85,1.56,2.86,2.23l1.69,1.97c1.28-.98.28-1.96-.13-2.98-.08-.19-.44-1.22-.45-1.31-.02-.2.3-.35.23-.63-.09-.38-1.28-.97-1.62-1.18ZM81.91,14.15c0-.32-2.73-1.08-3.25-1.29-6.44-2.61-11.09-7.84-18.28-8.73-4.18-.52-8.04.09-11.63,2.32-.4.25-1.9,1.26-2.13,1.54-.12.15-.22.52-.14.61.05.05,1.26,0,1.49,0l3.99.42,2.98.65c1.42-1.55,2.85-3.13,4.7-4.19,1.2.06,1.02.15,1.9.41-.64,1.05-1.98,1.6-2.92,2.44-.2.18-1.83,1.81-1.56,2.04,3.59.66,7.05,1.98,10.58,2.92,4.18,1.11,8.33,2.12,12.69,1.7.99-.1.48-.53.61-.68.09-.1.83.18.95-.14ZM30.88,11.16c-2.05-3.63-6.27-5.38-10.31-4.41-7.46,1.79-10.61,10.43-5.98,16.57.12.16.12.39.41.33.09.52,2.25,2.55,2.72,2.25.29-.19,1.23-3.09,1.76-3.54-.33-.06-1.67-1.8-1.5-1.97.78.31,1.38.28,1.83,1.08.57-.72.96-1.55,1.5-2.29,1.64-2.24,4.64-4.81,7.02-6.14.41-.23,2.66-1.2,2.75-1.33.24-.33-.11-.42-.21-.55ZM53.8,11.32c-2.37-.73-4.86-.75-7.31-.97-.11.64.41.67.68,1.02,2.06,2.68,4.47,5.23,7.84,6.28.29.09.66-.04.92.17.21-.11,0-.24-.07-.34-1.09-1.92-1.95-3.91-2.06-6.15ZM60.88,19.17c0-.19.02-.39-.03-.58-.3-1.02-1.21-2.22-1.52-3.36-.22-.8-.23-1.64-.41-2.44-1.01-.52-2.09-.85-3.19-1.08l1.97,6.79c.33.32,3.02.85,3.18.68ZM66.31,19.3c-.62-1.6-1.52-3.16-1.69-4.89-.16-.28-3.33-.98-3.87-1.22-.24.27.66,3.42.88,3.94.18.44.55.92.77,1.4.12.26.13.73.31.91.41.42,1.79-.07,2.33-.13.38-.04.82.2,1.27,0ZM75.67,16.86c-1.5-.43-3.17-.39-4.67-.69-.22-.04-.38-.21-.56-.25-1.3-.29-2.58-.63-3.86-.96.07.57,1.73,4.34,1.97,4.34.03,0,.16-.2.31-.23,1.25-.25,2.49-.47,3.69-.93l3.13-1.28ZM72.55,23.65c-1.26.29-2.5.68-3.77.91-.94.17-2.09.13-2.94.32-.91.2-2.09,1.26-3.2,1.21l1.09,3.94c1.51-.19,3.08-.58,4.39-1.38,1.88-1.15,3.81-2.81,4.43-5ZM62.26,24.84c-.05-.04.02-.42-.16-.17-.25,1.5,1.83.36,1.49.07-.31-.13-1.15.25-1.34.11ZM6.59,44.96c2.27,3.1,5.18,5.72,8.34,7.87.19-.04.79-2.14.88-2.52.52-2.17,1.06-9.11.13-10.96-.18-.36-.67-.78-.91-1.13-.77-1.15-1.53-2.19-1.88-3.54-.24-.91-.23-1.93-.58-2.74-.79-4.54-6.1-5.97-9.3-2.72-3.94,4,.66,12.11,3.33,15.75ZM59.48,74.64c.79-.89-.33-3.23-.84-4.17-.41-.77-2.6-4.09-3.4-4.07-.37,0-2.4,2.55-2.84,2.99-1.76,1.77-3.99,3.57-6.11,4.88-.33.2-2.24,1.16-2.24,1.29,2.57.96,5.67.27,8.25-.44.7-.19,1.81-.78,2.42-.84,1.28-.14,3.68,1.58,4.76.36Z"/>
    <path class="cls-6" d="M77.34,43.14c-1.33,0-1.58-1.66-1.74-2.68-.05-.33-.1-.68-.17-.86-.26-.71-.61-.96-1.64-1.18-.12-.03-.33-.05-.56-.07-.92-.09-2.07-.19-2.53-.97-.16-.27-.28-.72,0-1.36.34-.75,1.4-.88,2.51-1.02.56-.07,1.19-.15,1.48-.3.91-.47,1.07-1.47,1.22-2.44.11-.73.22-1.43.71-1.83.57-.47,1.04-.44,1.33-.33.87.32,1.1,1.63,1.3,2.78.06.33.12.71.18.86.1.24.47.81.63.94h0c.48.42,1.05.47,1.71.53.53.05,1.07.1,1.59.35.61.3.81.71.88,1,.06.29.06.74-.36,1.25-.39.48-1.16.55-2.06.63-.65.06-1.46.13-1.79.37-.14.15-.67.85-.76,1.01-.08.17-.18.56-.27.94-.26,1.1-.53,2.24-1.44,2.36-.08.01-.16.02-.24.02ZM71.81,36.55c-.06.14-.06.21-.05.22.07.16.6.28,1.58.37.27.03.51.05.7.09,1.01.21,2.03.54,2.54,1.96.11.3.17.68.23,1.09.09.6.24,1.58.55,1.63.18-.22.37-1.03.46-1.43.12-.49.21-.91.37-1.21.12-.23.85-1.22,1.07-1.4.61-.48,1.55-.57,2.46-.65.42-.04,1.06-.09,1.23-.2.09-.12.1-.19.1-.2,0-.01-.05-.09-.22-.17-.32-.15-.73-.19-1.17-.23-.73-.06-1.63-.14-2.41-.83-.33-.29-.8-1.02-.95-1.41-.1-.26-.17-.63-.25-1.1-.08-.47-.27-1.55-.5-1.82-.03.02-.08.05-.14.1-.13.11-.22.69-.28,1.08-.17,1.09-.4,2.58-1.87,3.34-.48.25-1.16.33-1.89.43-.48.06-1.37.17-1.56.34Z"/>
    <path class="cls-4" d="M34.01,64.23c-.95-1.16-5.13-1.15-6.59-1.09-3.39.14-6.2.95-9.43,1.77-.03-.8.16-1.61.42-2.36,3.16-4.84,4.5-12.12,10.71-13.99,2.37-.71,4.57-.59,6.64.83,5.49,3.76,1.25,10.9-1.75,14.85Z"/>
    <path class="cls-4" d="M31.02,31.38c.87-.16,1.51-.87,2.37-1.22,3.18-1.3,6.63-.24,8.75,2.38,3.49,4.31.9,10.66-4.34,11.94-5.57,1.36-9.67-2.76-9.5-8.21-2.03.78-4.08.75-5.56-1.02-2.19-2.62-1.36-6.98,1.93-8.24,3.06-1.17,6.36,1.12,6.34,4.37ZM25.83,28.16c-2.87.49-3.95,4.8-1.52,6.62,1.02.77,3.03,1.03,3.99.05.1-.1,1.41-2.22,1.45-2.35.71-2.38-1.53-4.72-3.91-4.32ZM36.33,34.79c.18-.31,1.86-.66,2.01-1.72.48-3.27-7.6-2.09-4.94.88.55.61,1.82.72,1.02,1.58-.59.63-1.78.62-2.46.13-.56-.4-.89-1.87-1.77-.96-.8.83-.09,1.47.54,2.05.18.16.46.15.56.28.17.23.34,1.22.51,1.63,1.5,3.59,5.03,4.23,7.1.68.34-.57.68-1.71,1-2.12.35-.47,1.31-.57,1.42-1.44.08-.63-.19-1.12-.88-1.01-.31.05-.62.79-1.16,1.03-.88.39-2.47.34-2.92-.62-.06-.12-.13-.26-.05-.39Z"/>
    <path class="cls-4" d="M9.71,64.23c.87-2.05,3.2-4.08,4.45-6.07,3.19-5.08,4.02-9.77,3.97-15.72-.06-6.77-.81-12.64,2.55-18.88,4.73-8.79,14.11-13.34,24.02-11.69.12.42.26.8.44,1.19-1.6.1-3.36-.14-4.94.01-1.69.16-3.47.79-5.07,1.3-.4.13-.94,0-1.24.38.27.33.94.82.96,1.21.14,2.3-3.62,2.63-3.27.08-.11-.01-.2,0-.31.03-.37.11-3.42,2.3-3.93,2.69-3.23,2.53-5.76,6.16-6.85,10.15-1.48,5.41-.32,11-.58,16.52-.33,6.94-2.97,12.92-7.95,17.7-.4.38-1.81,1.86-2.23,1.1Z"/>
    <path class="cls-4" d="M32.51,65.72c-1.51.77-2.38.39-4,.54-3.83.36-7.46,1.54-11.17,2.4-2.2.51-5.34,1.39-7.55,1.11-1.88-.23-3.9-2.17-5.78-.53.33-2.63,4.19-1.44,5.66-.58,6.86-1.14,13.43-4.21,20.6-3.63.64.05,1.78.21,2.24.68Z"/>
    <path class="cls-4" d="M47.41,26.81c2.47-.21,5.26,1.69,5.58,4.25.59,4.71-4.47,7.69-8.26,4.73-.15-.12-.69-.52-.75-.61-2.21-3.34-.92-8,3.42-8.36ZM47.82,28.16c-5.47.2-4.09,8.99,1.22,7.2,3.86-1.3,2.97-7.35-1.22-7.2Z"/>
    <path class="cls-4" d="M73.5,51.47c-1.34-.71-2.18-2.02-3.4-2.91-5.02-3.62-12.15-3.53-17.08.27-.33.26-.5.77-.83,1.01,1.05-2.88,3.72-4.46,6.59-5.15,5.6-1.33,12.37,1.44,14.72,6.78Z"/>
    <path class="cls-6" d="M46.59,21.1c.41-.08,1.14-.07,1.56,0,1.2.19,3.95,1.85,3.2,3.27s-2.41-.03-3.38-.38c-.76-.27-1.94-.24-2.36-1.03s.13-1.69.97-1.86Z"/>
    <path class="cls-6" d="M24.01,24.69c-1.13-1.15,1.01-2.65,1.99-3.15s3.05-1.08,3.6.21c.8,1.89-1.65,1.96-2.68,2.34-.84.3-2.15,1.38-2.91.61Z"/>
    <path class="cls-4" d="M36.53,14.63c.06-.05.04-.19.12-.19.54.21,1.43-.07,1.24.79-.17.77-.46.92-1.24.82s-.62-.99-.12-1.43Z"/>
    <path class="cls-1" d="M12.56,31.93c.35.82.34,1.83.58,2.74.36,1.36,1.11,2.39,1.88,3.54.24.35.73.77.91,1.13.93,1.85.39,8.79-.13,10.96-.09.38-.69,2.48-.88,2.52-3.16-2.15-6.07-4.77-8.34-7.87.25-.12.07-.44,0-.61-1.12-2.86-3.9-8.35-3.67-11.27s3.42-5.3,6.25-4.2c1.12.43,2.92,1.95,3.39,3.05ZM9.58,34.64c-.13-.54-.24-1.23-.07-1.77.24-.78,1.79-1.08,1.55-1.8-.2-.64-1.66-.23-2.09.04-.54.35-1.33,2.14-1.52,2.18-.66.16-2.19-1.14-2.35-.96-.4.46,1.17,1.09.95,2.24-.16.8-1.22.62-1.35,1.29.85.2,1.82.01,2.51-.54.29-.23.61-.87.84-.93.4-.12,1.03.45,1.53.25Z"/>
    <path class="cls-1" d="M15.01,23.65c-.4-2.18-1.53-4.26-1.35-6.58.45-5.83,6.47-10.51,12.24-8.85,1.15.33,4.25,2.07,4.99,2.95.11.13.45.22.21.55-.09.12-2.33,1.1-2.75,1.33-2.38,1.33-5.38,3.9-7.02,6.14-.54.74-.93,1.57-1.5,2.29-.45-.8-1.05-.77-1.83-1.08-.17.17,1.16,1.91,1.5,1.97-.54.45-1.47,3.35-1.76,3.54-.47.3-2.62-1.73-2.72-2.25Z"/>
    <path class="cls-2" d="M81.91,14.15c-.12.31-.86.04-.95.14-.13.14.38.58-.61.68-4.36.43-8.51-.58-12.69-1.7-3.53-.94-7-2.26-10.58-2.92-.27-.23,1.35-1.86,1.56-2.04.94-.84,2.28-1.39,2.92-2.44.64.19,1.51.24,2.2.45,5.37,1.62,9.29,5.82,14.87,7.52,1.07.33,2.17.35,3.29.31Z"/>
    <path class="cls-1" d="M59.48,74.64c-1.08,1.22-3.48-.5-4.76-.36-.61.07-1.72.65-2.42.84-2.57.7-5.68,1.39-8.25.44,0-.13,1.91-1.09,2.24-1.29,2.12-1.31,4.35-3.12,6.11-4.88.44-.44,2.47-2.98,2.84-2.99.8-.02,2.98,3.3,3.4,4.07.51.94,1.63,3.27.84,4.17Z"/>
    <path class="cls-4" d="M81.91,14.15c-1.11.04-2.21.02-3.29-.31-5.58-1.7-9.51-5.9-14.87-7.52-.69-.21-1.56-.26-2.2-.45-.88-.26-.7-.35-1.9-.41-2.1-.11-3.76-.19-5.84.34-1.94.49-3.65,1.53-5.43,2.38l.27.4c-.22,0-.45,0-.68,0s-1.44.05-1.49,0c-.08-.09.02-.46.14-.61.23-.28,1.73-1.29,2.13-1.54,3.58-2.23,7.45-2.84,11.63-2.32,7.18.9,11.84,6.12,18.28,8.73.52.21,3.25.98,3.25,1.29Z"/>
    <path class="cls-4" d="M30.88,11.16c-.74-.88-3.84-2.62-4.99-2.95-5.77-1.66-11.79,3.03-12.24,8.85-.18,2.32.96,4.4,1.35,6.58-.29.07-.29-.16-.41-.33-4.64-6.14-1.48-14.78,5.98-16.57,4.04-.97,8.26.78,10.31,4.41Z"/>
    <path class="cls-1" d="M72.55,23.65c-.62,2.18-2.55,3.85-4.43,5-1.31.8-2.88,1.19-4.39,1.38l-1.09-3.94c1.1.05,2.29-1.02,3.2-1.21.85-.18,2-.15,2.94-.32,1.27-.23,2.52-.62,3.77-.91Z"/>
    <path class="cls-2" d="M53.8,11.32c.11,2.24.97,4.24,2.06,6.15.06.1.28.23.07.34-.26-.21-.62-.08-.92-.17-3.37-1.04-5.78-3.59-7.84-6.28-.26-.34-.79-.37-.68-1.02,2.45.22,4.94.24,7.31.97Z"/>
    <path class="cls-4" d="M6.59,44.96c-2.67-3.64-7.27-11.75-3.33-15.75,3.2-3.26,8.51-1.82,9.3,2.72-.47-1.1-2.27-2.62-3.39-3.05-2.83-1.1-6.03,1.38-6.25,4.2s2.56,8.41,3.67,11.27c.07.17.25.5,0,.61Z"/>
    <path class="cls-2" d="M59.66,5.46c-1.85,1.06-3.28,2.64-4.7,4.19l-2.98-.65-3.99-.42c.23,0,.45,0,.68,0l-.27-.4c1.78-.85,3.49-1.89,5.43-2.38,2.07-.52,3.74-.44,5.84-.34Z"/>
    <path class="cls-2" d="M66.31,19.3c-.45.21-.89-.03-1.27,0-.55.06-1.92.55-2.33.13-.17-.18-.19-.65-.31-.91-.22-.48-.59-.96-.77-1.4-.22-.51-1.12-3.67-.88-3.94.54.23,3.71.94,3.87,1.22.17,1.73,1.08,3.29,1.69,4.89Z"/>
    <path class="cls-2" d="M60.88,19.17c-.16.17-2.86-.36-3.18-.68l-1.97-6.79c1.1.23,2.19.56,3.19,1.08.17.81.18,1.65.41,2.44.32,1.14,1.22,2.35,1.52,3.36.06.19.04.38.03.58Z"/>
    <path class="cls-2" d="M75.67,16.86l-3.13,1.28c-1.2.46-2.44.68-3.69.93-.14.03-.28.23-.31.23-.24,0-1.9-3.77-1.97-4.34,1.28.33,2.56.67,3.86.96.19.04.34.21.56.25,1.5.3,3.17.26,4.67.69Z"/>
    <path class="cls-2" d="M38.35,2.48c.34.21,1.53.8,1.62,1.18.07.28-.25.42-.23.63,0,.1.38,1.12.45,1.31.41,1.02,1.41,2.01.13,2.98l-1.69-1.97c-1-.67-1.72-1.76-2.86-2.23.64-.69,1.84-1.25,2.58-1.9Z"/>
    <path class="cls-4" d="M38.35,2.48c-.74.65-1.94,1.21-2.58,1.9-.24.26-.26.51-.28.53-.21.19-.72-.17-.88-.39-.99-1.36,1.74-3.32,3.38-2.43.21.11.29.35.36.39Z"/>
    <path class="cls-7" d="M62.26,24.84c.18.14,1.02-.23,1.34-.11.34.29-1.74,1.43-1.49-.07.18-.24.11.13.16.17Z"/>
    <path class="cls-6" d="M36.33,34.79c-.08.13,0,.26.05.39.45.96,2.04,1.01,2.92.62.54-.24.85-.98,1.16-1.03.69-.11.96.38.88,1.01-.11.87-1.07.97-1.42,1.44-.31.42-.66,1.55-1,2.12-2.08,3.55-5.61,2.91-7.1-.68-.17-.41-.33-1.4-.51-1.63-.1-.13-.38-.12-.56-.28-.63-.58-1.34-1.22-.54-2.05.88-.91,1.2.56,1.77.96.68.49,1.86.5,2.46-.13.81-.85-.47-.96-1.02-1.58-2.66-2.98,5.42-4.15,4.94-.88-.16,1.06-1.84,1.42-2.01,1.72ZM35.45,36.84c-.35.03-.63.55-.94.68-.52.22-1.1-.05-1.06.85.04.84,1.28,1.83,2.12,1.81.67-.01,1.66-.81,2.02-1.34.83-1.21-.13-1.05-1.1-1.46-.3-.13-.78-.56-1.04-.54Z"/>
    <path class="cls-6" d="M25.83,28.16c2.38-.41,4.62,1.94,3.91,4.32-.04.13-1.35,2.25-1.45,2.35-.95.98-2.96.72-3.99-.05-2.43-1.82-1.34-6.13,1.52-6.62ZM25.27,28.98c-1.74.09-1.03,3.59.72,2.46,1.06-.69.54-2.53-.72-2.46Z"/>
    <path class="cls-6" d="M47.82,28.16c4.18-.15,5.07,5.9,1.22,7.2-5.3,1.79-6.69-7-1.22-7.2ZM46.32,29.1c-1.47.35-.86,2.84.61,2.53,1.33-.28.86-2.88-.61-2.53Z"/>
    <path class="cls-6" d="M9.58,34.64c-.5.2-1.14-.37-1.53-.25-.23.07-.55.7-.84.93-.69.56-1.66.74-2.51.54.14-.67,1.2-.49,1.35-1.29.23-1.15-1.35-1.78-.95-2.24.16-.18,1.69,1.11,2.35.96.18-.04.98-1.83,1.52-2.18.43-.28,1.89-.68,2.09-.04.23.73-1.31,1.02-1.55,1.8-.17.54-.06,1.23.07,1.77Z"/>
    <path class="cls-5" d="M35.45,36.84c.25-.02.74.41,1.04.54.97.41,1.93.25,1.1,1.46-.36.53-1.35,1.33-2.02,1.34-.84.01-2.08-.97-2.12-1.81-.04-.89.54-.62,1.06-.85.31-.13.59-.65.94-.68Z"/>
    <path class="cls-4" d="M25.27,28.98c1.26-.06,1.78,1.78.72,2.46-1.75,1.13-2.46-2.38-.72-2.46Z"/>
    <path class="cls-4" d="M46.32,29.1c1.47-.35,1.94,2.25.61,2.53-1.47.31-2.08-2.18-.61-2.53Z"/>
  </g>
  <g>
    <g>
      <path class="cls-8" d="M108.02,57.64c-1.91-.61-3.47-1.52-4.69-2.73-1.22-1.22-2.08-2.72-2.6-4.53s-.78-3.92-.78-6.35c0-3.04.8-6.01,2.41-8.92h-1.37c-1.22,0-1.82-.85-1.82-2.54v-4.82c0-1.56.8-2.34,2.41-2.34h27.81c1.61,0,2.41.76,2.41,2.28v5.14c0,1.52-.78,2.28-2.34,2.28h-.85c1.22,2.39,1.82,5.36,1.82,8.92,0,4.6-1.29,8.17-3.87,10.71s-6.39,3.81-11.43,3.81c-2.82,0-5.19-.3-7.1-.91ZM147.28,74.05v4.3c0,1.65-.87,2.47-2.6,2.47h-41.74c-1.74,0-2.6-.76-2.6-2.28v-13.87c0-1.61.89-2.41,2.67-2.41h5.14c1.61,0,2.41.78,2.41,2.34v7.16h34.25c1.65,0,2.47.76,2.47,2.28ZM103.52,20.78v-3.45c0-1.61.8-2.41,2.41-2.41h18.49c1.61,0,2.41.72,2.41,2.15v3.71c0,1.56-.8,2.34-2.41,2.34h-18.82c-1.39,0-2.08-.78-2.08-2.34ZM111.14,37.32c-.78,1.48-1.17,3.71-1.17,6.71,0,2.34.39,4.09,1.17,5.24.78,1.15,2.17,1.73,4.17,1.73,1.82,0,3.14-.62,3.94-1.86.8-1.24,1.2-3.05,1.2-5.44,0-2.87-.36-5.01-1.07-6.45-.72-1.43-2.03-2.15-3.94-2.15-2.08,0-3.52.74-4.3,2.21ZM151.45,32.77v5.47c0,1.61-.82,2.41-2.47,2.41h-3.52v15.17c0,1.74-.87,2.6-2.6,2.6h-5.21c-1.78,0-2.67-.87-2.67-2.6V18.31c0-1.61.85-2.41,2.54-2.41h5.4c1.69,0,2.54.76,2.54,2.28v12.31h3.65c1.56,0,2.34.76,2.34,2.28Z"/>
      <path class="cls-8" d="M187.2,76.66c-6.47,1.91-15.72,2.87-27.74,2.87-1.65,0-2.47-.83-2.47-2.47V19.74c0-1.74.87-2.6,2.6-2.6h4.62c1.74,0,2.6.8,2.6,2.41v7.94h12.83v-7.88c0-1.65.89-2.47,2.67-2.47h4.43c1.78,0,2.67.82,2.67,2.47v53.66c0,1.82-.74,2.95-2.21,3.39ZM179.65,69.36v-32.89h-12.89v34.38c4.47,0,8.77-.5,12.89-1.5ZM210.12,36.15v5.01c0,1.82-.89,2.73-2.67,2.73h-3v34.58c0,1.56-.82,2.34-2.47,2.34h-5.54c-1.65,0-2.47-.76-2.47-2.28V18.37c0-1.69.82-2.54,2.47-2.54h5.34c1.78,0,2.67.82,2.67,2.47v15.43h2.87c1.87,0,2.8.8,2.8,2.41Z"/>
      <path class="cls-8" d="M246.98,35.76c2.34-.04,4.45-.21,6.32-.49,1.87-.28,4.32-.92,7.36-1.92,1.95-.61,2.93.41,2.93,3.06v2.93c-.09,1.78-.93,2.82-2.54,3.13-4.78,1.17-10.14,1.89-16.08,2.15v3h15.95c1.78,0,2.67.85,2.67,2.54v5.01c0,1.22-.67,1.87-2.02,1.95h-43.11c-1.61,0-2.41-.98-2.41-2.93v-3.91c0-1.78.89-2.67,2.67-2.67h15.63v-4.56c-4.51,1.13-9.83,1.69-15.95,1.69-1.56,0-2.34-.76-2.34-2.28v-23.96c0-1.74.85-2.6,2.54-2.6h42.52c1.65,0,2.47.74,2.47,2.21v3.97c0,1.39-.78,2.08-2.34,2.08h-14.26v11.59ZM216.05,67.74v-4.3c0-1.78.89-2.67,2.67-2.67h41.87c2,0,3,.82,3,2.47v14.91c0,1.78-.93,2.67-2.8,2.67h-4.62c-1.87,0-2.8-.85-2.8-2.54v-7.94h-34.64c-1.78,0-2.67-.87-2.67-2.6ZM236.63,33.74v-9.57h-10.22v11.59c2.95,0,6.36-.67,10.22-2.02Z"/>
      <path class="cls-8" d="M271.34,70.93v-4.3c0-1.78.8-2.67,2.41-2.67h42.72c1.95,0,2.93.8,2.93,2.41v11.98c0,1.69-.93,2.54-2.8,2.54h-4.36c-1.91,0-2.93-.76-3.06-2.28v-5.4h-35.3c-1.69,0-2.54-.76-2.54-2.28ZM271.47,57.51v-3.39c0-1.95.87-2.93,2.6-2.93h16.15v-3.65h-15.76c-1.95,0-2.95-.78-3-2.34v-26.96c0-1.61.82-2.39,2.47-2.34h43.5c1.3,0,1.95.76,1.95,2.28v4.56c0,1.43-.78,2.15-2.34,2.15h-35.16v3.45h35.16c1.56-.09,2.34.74,2.34,2.47v3c0,1.56-.87,2.34-2.6,2.34h-34.9v3h34.77c1.82,0,2.74.76,2.74,2.28v3.71c0,1.61-.83,2.41-2.47,2.41h-16.08v3.65h15.95c1.74,0,2.6.85,2.6,2.54v4.75c0,1.22-.67,1.87-2.02,1.95h-43.57c-1.56,0-2.34-.98-2.34-2.93Z"/>
      <path class="cls-8" d="M337.08,79.26c-.85.74-2.31,1.19-4.4,1.37-2.17-.17-3.64-.64-4.4-1.4s-1.18-2.22-1.27-4.4c.09-2.13.5-3.61,1.24-4.46.74-.85,2.21-1.31,4.43-1.4,2.26.09,3.77.52,4.53,1.3s1.18,2.3,1.27,4.56c-.09,2.21-.55,3.69-1.4,4.43Z"/>
    </g>
    <path class="cls-8" d="M315.91,4.02c.33-.76.77-1.43,1.35-2.01.57-.58,1.24-1.03,2-1.35.76-.33,1.58-.49,2.46-.49s1.71.16,2.47.49c.76.33,1.43.78,2,1.35.57.58,1.02,1.25,1.35,2.01.33.76.5,1.58.5,2.46s-.17,1.7-.5,2.46c-.33.77-.78,1.44-1.35,2.02-.57.58-1.23,1.03-2,1.36-.76.33-1.59.5-2.47.5s-1.69-.17-2.46-.5c-.76-.33-1.43-.78-2-1.36-.57-.58-1.02-1.25-1.35-2.02s-.49-1.59-.49-2.46.16-1.69.49-2.46ZM317.58,8.23c.24.55.56,1.03.96,1.43.4.4.87.73,1.42.96s1.14.36,1.76.36,1.21-.12,1.77-.36,1.03-.56,1.43-.96.72-.88.96-1.43c.24-.55.36-1.14.36-1.76s-.12-1.2-.36-1.75c-.24-.55-.56-1.03-.96-1.44-.4-.4-.88-.73-1.43-.96s-1.14-.36-1.77-.36-1.21.12-1.76.36-1.02.56-1.42.96c-.4.4-.72.88-.96,1.44-.24.55-.36,1.14-.36,1.75s.12,1.21.36,1.76ZM320.46,6.15c0-1.09.47-1.63,1.44-1.63.49,0,.83.19,1.02.56.08.19.25.24.49.15l.7-.24c.22-.07.29-.23.2-.46-.33-.94-1.14-1.43-2.46-1.47-1.87,0-2.81.99-2.82,2.97v.95c0,1.98.95,2.97,2.82,2.97,1.31-.04,2.13-.53,2.46-1.47.09-.23.03-.39-.2-.46l-.7-.24c-.24-.08-.4-.03-.49.15-.19.37-.53.56-1.02.56-.97,0-1.45-.54-1.44-1.63v-.73Z"/>
  </g>
</svg>