<?xml version="1.0" encoding="UTF-8"?>
<svg id="Layer_1" xmlns="http://www.w3.org/2000/svg" version="1.1" viewBox="0 0 10 10">
  <!-- Generator: Adobe Illustrator 29.0.1, SVG Export Plug-In . SVG Version: 2.1.0 Build 192)  -->
  <defs>
    <style>
      .st0 {
        fill: #006838;
      }
    </style>
  </defs>
  <path class="st0" d="M.5,8.1c-.3.3-.4.7,0,1.1.3.3.7.4,1.1,0l-1-1.1ZM9.7,2.1c0-.4-.3-.8-.7-.8L2.3.7c-.4,0-.8.3-.8.7,0,.4.3.8.7.8l6,.5-.5,6c0,.4.3.8.7.8.4,0,.8-.3.8-.7l.6-6.7ZM1.5,9.3L9.5,2.6l-1-1.1L.5,8.1l1,1.1Z"/>
</svg>