<?xml version="1.0" encoding="UTF-8"?>
<svg id="Layer_1" xmlns="http://www.w3.org/2000/svg" version="1.1" viewBox="0 0 49 48">
  <!-- Generator: Adobe Illustrator 29.0.1, SVG Export Plug-In . SVG Version: 2.1.0 Build 192)  -->
  <defs>
    <style>
      .st0 {
        fill: #f49bb4;
      }
    </style>
  </defs>
  <path class="st0" d="M36.8,8h-2v-2c0-.5-.2-1-.6-1.4-.4-.4-.9-.6-1.4-.6s-1,.2-1.4.6c-.4.4-.6.9-.6,1.4v2h-12v-2c0-.5-.2-1-.6-1.4-.4-.4-.9-.6-1.4-.6s-1,.2-1.4.6c-.4.4-.6.9-.6,1.4v2h-2c-1.6,0-3.1.6-4.2,1.8-1.1,1.1-1.8,2.7-1.8,4.2v24c0,1.6.6,3.1,1.8,4.2,1.1,1.1,2.7,1.8,4.2,1.8h24c1.6,0,3.1-.6,4.2-1.8,1.1-1.1,1.8-2.7,1.8-4.2V14c0-1.6-.6-3.1-1.8-4.2-1.1-1.1-2.7-1.8-4.2-1.8ZM16.8,34c-.4,0-.8-.1-1.1-.3-.3-.2-.6-.5-.7-.9-.2-.4-.2-.8-.1-1.2,0-.4.3-.7.5-1,.3-.3.6-.5,1-.5.4,0,.8,0,1.2.1.4.2.7.4.9.7.2.3.3.7.3,1.1s-.2,1-.6,1.4c-.4.4-.9.6-1.4.6ZM32.8,34h-8c-.5,0-1-.2-1.4-.6-.4-.4-.6-.9-.6-1.4s.2-1,.6-1.4c.4-.4.9-.6,1.4-.6h8c.5,0,1,.2,1.4.6.4.4.6.9.6,1.4s-.2,1-.6,1.4c-.4.4-.9.6-1.4.6ZM38.8,22H10.8v-8c0-.5.2-1,.6-1.4.4-.4.9-.6,1.4-.6h2v2c0,.5.2,1,.6,1.4.4.4.9.6,1.4.6s1-.2,1.4-.6c.4-.4.6-.9.6-1.4v-2h12v2c0,.5.2,1,.6,1.4.4.4.9.6,1.4.6s1-.2,1.4-.6c.4-.4.6-.9.6-1.4v-2h2c.5,0,1,.2,1.4.6.4.4.6.9.6,1.4v8Z"/>
</svg>