<?xml version="1.0" encoding="UTF-8"?>
<svg id="Layer_1" xmlns="http://www.w3.org/2000/svg" version="1.1" viewBox="0 0 20 20">
  <!-- Generator: Adobe Illustrator 29.0.1, SVG Export Plug-In . SVG Version: 2.1.0 Build 192)  -->
  <defs>
    <style>
      .st0 {
        fill: #f59eb5;
        fill-rule: evenodd;
      }
    </style>
  </defs>
  <path class="st0" d="M4.3,6.5c.3,0,.6.2.7.6l.4,5.7c0,1.1.1,1.9.2,2.5.1.6.3.9.5,1.1.2.2.5.4,1.1.4.6,0,1.4,0,2.5,0h.6c1.1,0,1.9,0,2.5,0,.6,0,.9-.2,1.1-.4.2-.2.4-.5.5-1.1.1-.6.2-1.4.2-2.5l.4-5.7c0-.3.3-.6.7-.6.3,0,.6.3.6.7l-.4,5.8c0,1.1-.1,1.9-.3,2.6-.1.7-.4,1.3-.9,1.8-.5.5-1.1.7-1.8.8-.7,0-1.6,0-2.6,0h-.7c-1.1,0-1.9,0-2.6,0-.7,0-1.3-.3-1.8-.8-.5-.5-.7-1-.9-1.8-.1-.7-.2-1.5-.3-2.6l-.4-5.8c0-.3.2-.6.6-.7Z"/>
  <path class="st0" d="M8.6,1.9h0c-.2,0-.3,0-.5,0-.6,0-1.1.5-1.4,1,0,.1-.1.3-.2.5h0s0,.3,0,.3c0,0,0,0,0,0-.1.4-.5.7-1,.7,0,0,0,0,0,0h-2.5c-.3,0-.6.3-.6.6s.3.6.6.6h14.2c.3,0,.6-.3.6-.6s-.3-.6-.6-.6h-2.5c0,0,0,0,0,0-.4,0-.8-.3-1-.7,0,0,0,0,0,0v-.2c0,0,0,0,0,0,0-.2-.1-.3-.2-.5-.3-.5-.8-.9-1.4-1-.1,0-.3,0-.5,0h0s-2.7,0-2.7,0ZM7.6,4.1c0,0,0,.2-.1.3h5c0,0,0-.2-.1-.3h0c0,0,0-.3,0-.3,0-.2,0-.3-.1-.3,0-.2-.3-.3-.5-.3,0,0,0,0-.3,0h-2.7c-.2,0-.3,0-.3,0-.2,0-.4.2-.5.3,0,0,0,0-.1.3v.2c0,0-.1,0-.1,0Z"/>
</svg>