<?xml version="1.0" encoding="UTF-8"?>
<svg id="Layer_1" xmlns="http://www.w3.org/2000/svg" version="1.1" viewBox="0 0 36 36">
  <!-- Generator: Adobe Illustrator 29.0.1, SVG Export Plug-In . SVG Version: 2.1.0 Build 192)  -->
  <defs>
    <style>
      .st0 {
        fill: #006838;
        fill-rule: evenodd;
      }
    </style>
  </defs>
  <path class="st0" d="M17.9,1.9h2.3c.6,0,1.1.5,1.1,1.1s-.5,1.1-1.1,1.1h-2.2c-3.6,0-6.1,0-8.1.3-1.9.3-3.1.7-3.9,1.6-.9.9-1.3,2-1.6,3.9-.3,1.9-.3,4.5-.3,8.1s0,6.1.3,8.1c.3,1.9.7,3.1,1.6,3.9.9.9,2,1.3,3.9,1.6,1.9.3,4.5.3,8.1.3s6.1,0,8.1-.3c1.9-.3,3.1-.7,3.9-1.6.9-.9,1.3-2,1.6-3.9.3-1.9.3-4.5.3-8.1v-2.2c0-.6.5-1.1,1.1-1.1s1.1.5,1.1,1.1v2.3c0,3.5,0,6.2-.3,8.3-.3,2.2-.9,3.9-2.2,5.2s-3.1,2-5.2,2.2c-2.1.3-4.8.3-8.3.3h-.2c-3.5,0-6.2,0-8.3-.3-2.2-.3-3.9-.9-5.2-2.2-1.3-1.3-2-3.1-2.2-5.2-.3-2.1-.3-4.8-.3-8.3v-.2c0-3.5,0-6.2.3-8.3.3-2.2.9-3.9,2.2-5.2,1.3-1.3,3.1-2,5.2-2.2,2.1-.3,4.8-.3,8.3-.3ZM25.2,3.4c2.1-2.1,5.4-2.1,7.4,0,2.1,2.1,2.1,5.4,0,7.4l-10,10c-.6.6-.9.9-1.3,1.2-.5.4-1,.7-1.5.9-.4.2-.9.4-1.7.6l-4.4,1.5c-.8.3-1.7,0-2.3-.5-.6-.6-.8-1.5-.5-2.3l1.5-4.4c.2-.7.4-1.2.6-1.7.3-.5.6-1,.9-1.5.3-.4.7-.7,1.2-1.3L25.2,3.4ZM31,5c-1.2-1.2-3.1-1.2-4.2,0l-.6.6c0,.1,0,.3.1.5.2.6.6,1.4,1.4,2.2s1.6,1.2,2.2,1.4c.2,0,.4.1.5.1l.6-.6c1.2-1.2,1.2-3.1,0-4.2ZM28.7,11.6c-.8-.3-1.7-.9-2.5-1.7-.9-.9-1.4-1.8-1.7-2.5l-7.6,7.6c-.6.6-.9.9-1.1,1.1-.3.3-.5.7-.7,1.1-.1.3-.3.6-.5,1.5l-.6,1.9,1.5,1.5,1.9-.6c.8-.3,1.2-.4,1.5-.5.4-.2.7-.4,1.1-.7.3-.2.5-.5,1.1-1.1l7.6-7.6Z"/>
</svg>