<?xml version="1.0" encoding="UTF-8"?>
<svg id="Layer_1" xmlns="http://www.w3.org/2000/svg" version="1.1" viewBox="0 0 49 48">
  <!-- Generator: Adobe Illustrator 29.0.1, SVG Export Plug-In . SVG Version: 2.1.0 Build 192)  -->
  <defs>
    <style>
      .st0 {
        isolation: isolate;
      }

      .st1 {
        fill: #f49bb4;
      }
    </style>
  </defs>
  <g class="st0">
    <path class="st1" d="M27.1,17.5c-.3-.5-.8-.9-1.3-1.1-.5-.2-1.1-.3-1.7-.2-.5,0-1.1.4-1.5.8-.4.4-.7.9-.8,1.5,0,.5,0,1.2.2,1.7s.6,1,1.1,1.3,1.1.5,1.7.5l-.2.2c.8,0,1.5-.4,2.1-.9.6-.5.9-1.5.9-2.1s-.2-1.2-.5-1.7Z"/>
  </g>
  <g class="st0">
    <path class="st1" d="M36.1,8.6c-3-2.9-7.1-4.6-11.3-4.6s-8.3,1.6-11.3,4.6-4.7,7-4.7,11.2c0,11,14.1,23.1,14.7,23.7.4.3.8.5,1.3.5s.9-.2,1.3-.5c.7-.5,14.7-12.7,14.7-23.7s-1.7-8.2-4.7-11.2ZM30.5,22.8c-.7,1.2-1.8,2.1-3.1,2.6-1.2.5-2.6.7-4,.4-1.4-.3-2.6-.9-3.6-1.9s-1.6-2.2-1.9-3.6c-.3-1.3-.1-2.7.4-4,.6-1.2,1.4-2.3,2.6-3.1,1.2-.8,2.5-1.2,3.9-1.2h0c1.8,0,3.5.7,4.9,2,1.4,1.3,2.1,3.5,2.1,4.9s-.4,2.7-1.2,3.9Z"/>
  </g>
</svg>