<?xml version="1.0" encoding="UTF-8"?>
<svg id="Layer_1" xmlns="http://www.w3.org/2000/svg" version="1.1" viewBox="0 0 30 30">
  <!-- Generator: Adobe Illustrator 29.0.1, SVG Export Plug-In . SVG Version: 2.1.0 Build 192)  -->
  <defs>
    <style>
      .st0 {
        fill: #006838;
        fill-rule: evenodd;
      }
    </style>
  </defs>
  <path class="st0" d="M4.5,7.5c0-.4.2-.8.4-1.1s.7-.4,1.1-.4h18c.4,0,.8.2,1.1.4s.4.7.4,1.1-.2.8-.4,1.1c-.3.3-.7.4-1.1.4H6c-.4,0-.8-.2-1.1-.4-.3-.3-.4-.7-.4-1.1ZM4.5,15c0-.4.2-.8.4-1.1.3-.3.7-.4,1.1-.4h18c.4,0,.8.2,1.1.4.3.3.4.7.4,1.1s-.2.8-.4,1.1-.7.4-1.1.4H6c-.4,0-.8-.2-1.1-.4s-.4-.7-.4-1.1ZM13.5,22.5c0-.4.2-.8.4-1.1.3-.3.7-.4,1.1-.4h9c.4,0,.8.2,1.1.4s.4.7.4,1.1-.2.8-.4,1.1-.7.4-1.1.4h-9c-.4,0-.8-.2-1.1-.4-.3-.3-.4-.7-.4-1.1Z"/>
</svg>